<?xml version="1.0" encoding="utf-8"?>
<!-- Svg Vector Icons : http://www.onlinewebfonts.com/icon -->
<!DOCTYPE svg PUBLIC "-//W3C//DTD SVG 1.1//EN" "http://www.w3.org/Graphics/SVG/1.1/DTD/svg11.dtd">
<svg version="1.1" xmlns="http://www.w3.org/2000/svg" xmlns:xlink="http://www.w3.org/1999/xlink" x="0px" y="0px" viewBox="0 0 256 256" enable-background="new 0 0 256 256" xml:space="preserve">
<metadata> Svg Vector Icons : http://www.onlinewebfonts.com/icon </metadata>
<g><g><path fill="#000000" d="M130.1,10c-64,0-115.9,51.5-115.9,115c0,21.7,6.1,42,16.6,59.4L10,246l64.2-20.4c16.6,9.1,35.7,14.3,56,14.3c64,0,115.9-51.5,115.9-115C246,61.5,194.1,10,130.1,10z M187.7,168.6c-2.7,6.8-15.1,12.9-20.5,13.2c-5.4,0.3-5.6,4.2-35.2-8.6C102.4,160.3,84.6,129,83.2,127c-1.4-2-11.5-16.4-10.9-30.8c0.6-14.4,8.5-21.3,11.3-24.1c2.8-2.8,6-3.3,8-3.4c2.3,0,3.9-0.1,5.6,0c1.7,0.1,4.3-0.4,6.6,5.6c2.2,6,7.6,20.6,8.3,22.1c0.7,1.5,1.1,3.2,0,5.2c-1.1,1.9-1.6,3.1-3.1,4.8c-1.5,1.7-3.3,3.7-4.6,5c-1.5,1.4-3.2,2.9-1.5,5.9c1.6,3,7.2,12.8,15.7,20.9c10.9,10.4,20.3,13.9,23.2,15.4c2.9,1.6,4.6,1.4,6.4-0.5c1.8-1.9,7.7-8.3,9.8-11.2c2.1-2.9,4-2.3,6.7-1.2c2.7,1.1,16.9,8.7,19.8,10.3c2.9,1.6,4.8,2.4,5.5,3.6C190.7,156,190.5,161.9,187.7,168.6z"/></g></g>
</svg>